<svg xmlns="http://www.w3.org/2000/svg" width="900" height="330" viewBox="0 0 900 330" role="img" aria-label="Distribution of CI waste across top-starred GitHub repos">
<style>text{font-family:-apple-system,"Segoe UI",Helvetica,Arial,sans-serif}.t{font-size:19px;font-weight:600;fill:#24292f}.pt{font-size:14px;font-weight:600;fill:#24292f}.s{font-size:12.5px;fill:#57606a}.n{font-size:11.5px;fill:#57606a}</style>
<rect width="900" height="330" fill="#ffffff"/>
<text x="24" y="32" class="t">How much of top-repo CI compute is waste?</text>
<text x="24" y="54" class="s">last ≤100 completed runs per repo · repos with ≥30 sampled compute-minutes · 2026-09-09</text>
<text x="40" y="100" class="pt">compute spent in failed runs + retries</text>
<text x="40" y="119" class="s">median 2% · 178 repos</text>
<rect x="40" y="152" width="46" height="132" rx="2" fill="#c9463d" fill-opacity="0.85"/>
<text x="63" y="147" class="n" text-anchor="middle">134</text>
<text x="40" y="300" class="n">0</text>
<rect x="92" y="260" width="46" height="24" rx="2" fill="#c9463d" fill-opacity="0.85"/>
<text x="115" y="255" class="n" text-anchor="middle">24</text>
<text x="92" y="300" class="n">10</text>
<rect x="144" y="277" width="46" height="7" rx="2" fill="#c9463d" fill-opacity="0.85"/>
<text x="167" y="272" class="n" text-anchor="middle">7</text>
<text x="144" y="300" class="n">20</text>
<rect x="196" y="279" width="46" height="5" rx="2" fill="#c9463d" fill-opacity="0.85"/>
<text x="219" y="274" class="n" text-anchor="middle">5</text>
<text x="196" y="300" class="n">30</text>
<rect x="248" y="281" width="46" height="3" rx="2" fill="#c9463d" fill-opacity="0.85"/>
<text x="271" y="276" class="n" text-anchor="middle">3</text>
<text x="248" y="300" class="n">40</text>
<text x="300" y="300" class="n">50</text>
<rect x="352" y="279" width="46" height="5" rx="2" fill="#c9463d" fill-opacity="0.85"/>
<text x="375" y="274" class="n" text-anchor="middle">5</text>
<text x="352" y="300" class="n">60+</text>
<line x1="40" y1="284" x2="410" y2="284" stroke="#d0d7de"/>
<text x="40" y="316" class="n">% →</text>
<text x="490" y="100" class="pt">billable minutes created by per-job round-up</text>
<text x="490" y="119" class="s">median 23% · 178 repos</text>
<rect x="490" y="152" width="46" height="132" rx="2" fill="#157878" fill-opacity="0.85"/>
<text x="513" y="147" class="n" text-anchor="middle">45</text>
<text x="490" y="300" class="n">0</text>
<rect x="542" y="187" width="46" height="97" rx="2" fill="#157878" fill-opacity="0.85"/>
<text x="565" y="182" class="n" text-anchor="middle">33</text>
<text x="542" y="300" class="n">10</text>
<rect x="594" y="175" width="46" height="109" rx="2" fill="#157878" fill-opacity="0.85"/>
<text x="617" y="170" class="n" text-anchor="middle">37</text>
<text x="594" y="300" class="n">20</text>
<rect x="646" y="214" width="46" height="70" rx="2" fill="#157878" fill-opacity="0.85"/>
<text x="669" y="209" class="n" text-anchor="middle">24</text>
<text x="646" y="300" class="n">30</text>
<rect x="698" y="255" width="46" height="29" rx="2" fill="#157878" fill-opacity="0.85"/>
<text x="721" y="250" class="n" text-anchor="middle">10</text>
<text x="698" y="300" class="n">40</text>
<rect x="750" y="249" width="46" height="35" rx="2" fill="#157878" fill-opacity="0.85"/>
<text x="773" y="244" class="n" text-anchor="middle">12</text>
<text x="750" y="300" class="n">50</text>
<rect x="802" y="234" width="46" height="50" rx="2" fill="#157878" fill-opacity="0.85"/>
<text x="825" y="229" class="n" text-anchor="middle">17</text>
<text x="802" y="300" class="n">60+</text>
<line x1="490" y1="284" x2="860" y2="284" stroke="#d0d7de"/>
<text x="490" y="316" class="n">% →</text>
<text x="24" y="320" class="n">repo count per 10-point bucket · github.com/linnea-bakshi/gha-doctor · method: linnea-bakshi.github.io/gha-doctor/waste-study</text>
</svg>
